%TF.GenerationSoftware,KiCad,Pcbnew,8.0.5*%
%TF.CreationDate,2024-09-16T17:09:01+05:30*%
%TF.ProjectId,FLASH,464c4153-482e-46b6-9963-61645f706362,rev?*%
%TF.SameCoordinates,Original*%
%TF.FileFunction,Copper,L2,Bot*%
%TF.FilePolarity,Positive*%
%FSLAX46Y46*%
G04 Gerber Fmt 4.6, Leading zero omitted, Abs format (unit mm)*
G04 Created by KiCad (PCBNEW 8.0.5) date 2024-09-16 17:09:01*
%MOMM*%
%LPD*%
G01*
G04 APERTURE LIST*
%TA.AperFunction,NonConductor*%
%ADD10C,0.200000*%
%TD*%
%TA.AperFunction,ComponentPad*%
%ADD11O,1.400000X1.400000*%
%TD*%
%TA.AperFunction,ComponentPad*%
%ADD12C,1.400000*%
%TD*%
%TA.AperFunction,ComponentPad*%
%ADD13R,1.800000X1.800000*%
%TD*%
%TA.AperFunction,ComponentPad*%
%ADD14C,1.800000*%
%TD*%
%TA.AperFunction,ComponentPad*%
%ADD15C,2.000000*%
%TD*%
%TA.AperFunction,ComponentPad*%
%ADD16R,1.600000X1.600000*%
%TD*%
%TA.AperFunction,ComponentPad*%
%ADD17C,1.600000*%
%TD*%
%TA.AperFunction,Conductor*%
%ADD18C,0.200000*%
%TD*%
G04 APERTURE END LIST*
D10*
X115000000Y-120000000D02*
X115000000Y-104000000D01*
X150000000Y-120000000D02*
X115000000Y-120000000D01*
X150000000Y-104000000D02*
X150000000Y-120000000D01*
X115000000Y-104000000D02*
X150000000Y-104000000D01*
D11*
%TO.P,R3,2*%
%TO.N,Net-(D1-A)*%
X125920000Y-115000000D03*
D12*
%TO.P,R3,1*%
%TO.N,Net-(U1-Q)*%
X131000000Y-115000000D03*
%TD*%
D11*
%TO.P,R2,2*%
%TO.N,Net-(U1-DIS)*%
X147500000Y-108500000D03*
D12*
%TO.P,R2,1*%
%TO.N,+9V*%
X142420000Y-108500000D03*
%TD*%
D11*
%TO.P,R1,2*%
%TO.N,Net-(C1-Pad2)*%
X148040000Y-112500000D03*
D12*
%TO.P,R1,1*%
%TO.N,Net-(U1-DIS)*%
X142960000Y-112500000D03*
%TD*%
D13*
%TO.P,D1,1,K*%
%TO.N,Earth*%
X122500000Y-110225000D03*
D14*
%TO.P,D1,2,A*%
%TO.N,Net-(D1-A)*%
X122500000Y-112765000D03*
%TD*%
D15*
%TO.P,C2,1*%
%TO.N,Net-(U1-CV)*%
X142500000Y-117000000D03*
%TO.P,C2,2*%
%TO.N,Earth*%
X147500000Y-117000000D03*
%TD*%
D16*
%TO.P,C1,1*%
%TO.N,Net-(U1-THR)*%
X129000000Y-111000000D03*
D17*
%TO.P,C1,2*%
%TO.N,Net-(C1-Pad2)*%
X129000000Y-108500000D03*
%TD*%
D18*
%TO.N,Net-(U1-CV)*%
X140000000Y-114500000D02*
X142500000Y-117000000D01*
X140000000Y-114500000D02*
X139500000Y-114500000D01*
%TO.N,Net-(U1-THR)*%
X133000000Y-111000000D02*
X134000000Y-112000000D01*
X129000000Y-111000000D02*
X133000000Y-111000000D01*
%TO.N,Net-(C1-Pad2)*%
X129000000Y-106500000D02*
X129000000Y-108500000D01*
X128500000Y-105500000D02*
X128500000Y-106000000D01*
X142000000Y-105000000D02*
X129000000Y-105000000D01*
X128500000Y-106000000D02*
X129000000Y-106500000D01*
X146500000Y-109500000D02*
X142000000Y-105000000D01*
X146500000Y-110960000D02*
X146500000Y-109500000D01*
X129000000Y-105000000D02*
X128500000Y-105500000D01*
X148040000Y-112500000D02*
X146500000Y-110960000D01*
%TO.N,Net-(U1-DIS)*%
X143800000Y-113340000D02*
X142960000Y-112500000D01*
X143800000Y-118200000D02*
X143800000Y-113340000D01*
X143000000Y-119000000D02*
X143800000Y-118200000D01*
X146838478Y-119500000D02*
X143000000Y-119500000D01*
X149040000Y-117298478D02*
X146838478Y-119500000D01*
X149040000Y-110040000D02*
X149040000Y-117298478D01*
X143000000Y-119500000D02*
X143000000Y-119000000D01*
X147500000Y-108500000D02*
X149040000Y-110040000D01*
%TO.N,+9V*%
X140820000Y-110100000D02*
X142420000Y-108500000D01*
X139500000Y-110100000D02*
X140820000Y-110100000D01*
X139500000Y-108000000D02*
X139500000Y-110100000D01*
X140000000Y-108500000D02*
X139500000Y-108000000D01*
X142420000Y-108500000D02*
X140000000Y-108500000D01*
%TO.N,Net-(U1-Q)*%
X132000000Y-115000000D02*
X131000000Y-115000000D01*
X132000000Y-115000000D02*
X134000000Y-113000000D01*
%TO.N,Earth*%
X147500000Y-115625786D02*
X147500000Y-117000000D01*
X142374214Y-110500000D02*
X147500000Y-115625786D01*
X135000000Y-110500000D02*
X142374214Y-110500000D01*
X134400000Y-109900000D02*
X122825000Y-109900000D01*
X135000000Y-110500000D02*
X134400000Y-109900000D01*
X134500000Y-110500000D02*
X135000000Y-110500000D01*
X133900000Y-109900000D02*
X134500000Y-110500000D01*
X122825000Y-109900000D02*
X133900000Y-109900000D01*
X122825000Y-109900000D02*
X122500000Y-110225000D01*
%TO.N,Net-(D1-A)*%
X125920000Y-115000000D02*
X124735000Y-115000000D01*
X124735000Y-115000000D02*
X122500000Y-112765000D01*
%TD*%
M02*
